<svg width="40" height="40" viewBox="0 0 40 40" fill="none" xmlns="http://www.w3.org/2000/svg">
<path d="M0 20C0 8.95431 8.95431 0 20 0C31.0457 0 40 8.95431 40 20C40 31.0457 31.0457 40 20 40C8.95431 40 0 31.0457 0 20Z" fill="#6469AA" fill-opacity="0.24"/>
<path d="M12.2197 16.4697C12.5126 16.1768 12.9874 16.1768 13.2803 16.4697L20 23.1893L26.7197 16.4697C27.0126 16.1768 27.4874 16.1768 27.7803 16.4697C28.0732 16.7626 28.0732 17.2374 27.7803 17.5303L20.5303 24.7803C20.2374 25.0732 19.7626 25.0732 19.4697 24.7803L12.2197 17.5303C11.9268 17.2374 11.9268 16.7626 12.2197 16.4697Z" fill="#EFEFF3"/>
</svg>
