<svg width="40" height="40" viewBox="0 0 40 40" fill="none" xmlns="http://www.w3.org/2000/svg">
<path d="M0 20C0 8.95431 8.95431 0 20 0C31.0457 0 40 8.95431 40 20C40 31.0457 31.0457 40 20 40C8.95431 40 0 31.0457 0 20Z" fill="#6469AA" fill-opacity="0.24"/>
<path d="M12.3971 12.5538L12.4697 12.4697C12.7359 12.2034 13.1526 12.1792 13.4462 12.3971L13.5303 12.4697L20 18.939L26.4697 12.4697C26.7626 12.1768 27.2374 12.1768 27.5303 12.4697C27.8232 12.7626 27.8232 13.2374 27.5303 13.5303L21.061 20L27.5303 26.4697C27.7966 26.7359 27.8208 27.1526 27.6029 27.4462L27.5303 27.5303C27.2641 27.7966 26.8474 27.8208 26.5538 27.6029L26.4697 27.5303L20 21.061L13.5303 27.5303C13.2374 27.8232 12.7626 27.8232 12.4697 27.5303C12.1768 27.2374 12.1768 26.7626 12.4697 26.4697L18.939 20L12.4697 13.5303C12.2034 13.2641 12.1792 12.8474 12.3971 12.5538L12.4697 12.4697L12.3971 12.5538Z" fill="#EFEFF3"/>
</svg>
